<mxfile host="app.diagrams.net" modified="2023-02-07T02:03:31.188Z" agent="5.0 (Windows NT 10.0; Win64; x64) AppleWebKit/537.36 (KHTML, like Gecko) Chrome/109.0.0.0 Safari/537.36" etag="RG6Ec0r4RCwMAQVed2pP" version="20.8.17" type="github">
  <diagram name="페이지-1" id="-jpJEWhZail0sRi4lbsV">
    <mxGraphModel dx="775" dy="395" grid="1" gridSize="10" guides="1" tooltips="1" connect="1" arrows="1" fold="1" page="1" pageScale="1" pageWidth="1169" pageHeight="827" math="0" shadow="0">
      <root>
        <mxCell id="0" />
        <mxCell id="1" parent="0" />
        <mxCell id="YDgJeZkZUilkzCZ2CpeF-1" value="DB" style="shape=cylinder3;whiteSpace=wrap;html=1;boundedLbl=1;backgroundOutline=1;size=15;" vertex="1" parent="1">
          <mxGeometry x="670" y="155" width="60" height="70" as="geometry" />
        </mxCell>
        <mxCell id="YDgJeZkZUilkzCZ2CpeF-2" value="DAO" style="whiteSpace=wrap;html=1;aspect=fixed;" vertex="1" parent="1">
          <mxGeometry x="570" y="155" width="80" height="80" as="geometry" />
        </mxCell>
        <mxCell id="YDgJeZkZUilkzCZ2CpeF-15" style="edgeStyle=orthogonalEdgeStyle;rounded=0;orthogonalLoop=1;jettySize=auto;html=1;exitX=1;exitY=0.5;exitDx=0;exitDy=0;" edge="1" parent="1">
          <mxGeometry relative="1" as="geometry">
            <mxPoint x="541" y="195" as="sourcePoint" />
            <mxPoint x="561" y="195" as="targetPoint" />
          </mxGeometry>
        </mxCell>
        <mxCell id="YDgJeZkZUilkzCZ2CpeF-3" value="Service" style="whiteSpace=wrap;html=1;aspect=fixed;" vertex="1" parent="1">
          <mxGeometry x="460" y="155" width="80" height="80" as="geometry" />
        </mxCell>
        <mxCell id="YDgJeZkZUilkzCZ2CpeF-17" style="edgeStyle=orthogonalEdgeStyle;rounded=0;orthogonalLoop=1;jettySize=auto;html=1;exitX=1;exitY=0.5;exitDx=0;exitDy=0;entryX=0.125;entryY=0.5;entryDx=0;entryDy=0;entryPerimeter=0;" edge="1" parent="1" source="YDgJeZkZUilkzCZ2CpeF-4" target="YDgJeZkZUilkzCZ2CpeF-3">
          <mxGeometry relative="1" as="geometry" />
        </mxCell>
        <mxCell id="YDgJeZkZUilkzCZ2CpeF-4" value="Controller" style="whiteSpace=wrap;html=1;aspect=fixed;" vertex="1" parent="1">
          <mxGeometry x="354" y="155" width="80" height="80" as="geometry" />
        </mxCell>
        <mxCell id="YDgJeZkZUilkzCZ2CpeF-5" value="JSP" style="whiteSpace=wrap;html=1;aspect=fixed;" vertex="1" parent="1">
          <mxGeometry x="150" y="300" width="80" height="80" as="geometry" />
        </mxCell>
        <mxCell id="YDgJeZkZUilkzCZ2CpeF-6" value="DS" style="whiteSpace=wrap;html=1;aspect=fixed;" vertex="1" parent="1">
          <mxGeometry x="200" y="155" width="80" height="80" as="geometry" />
        </mxCell>
        <mxCell id="YDgJeZkZUilkzCZ2CpeF-7" value="Internal&lt;br&gt;Resource&lt;br&gt;ViewResolver" style="whiteSpace=wrap;html=1;aspect=fixed;" vertex="1" parent="1">
          <mxGeometry x="320" y="290" width="94" height="94" as="geometry" />
        </mxCell>
        <mxCell id="YDgJeZkZUilkzCZ2CpeF-11" value="" style="endArrow=classic;html=1;rounded=0;" edge="1" parent="1" source="YDgJeZkZUilkzCZ2CpeF-6">
          <mxGeometry width="50" height="50" relative="1" as="geometry">
            <mxPoint x="340" y="245" as="sourcePoint" />
            <mxPoint x="360" y="195" as="targetPoint" />
          </mxGeometry>
        </mxCell>
        <mxCell id="YDgJeZkZUilkzCZ2CpeF-19" value="" style="endArrow=classic;html=1;rounded=0;entryX=0.5;entryY=1;entryDx=0;entryDy=0;entryPerimeter=0;" edge="1" parent="1" source="YDgJeZkZUilkzCZ2CpeF-7" target="YDgJeZkZUilkzCZ2CpeF-1">
          <mxGeometry width="50" height="50" relative="1" as="geometry">
            <mxPoint x="430" y="340" as="sourcePoint" />
            <mxPoint x="500.71067811865476" y="290" as="targetPoint" />
            <Array as="points">
              <mxPoint x="700" y="320" />
            </Array>
          </mxGeometry>
        </mxCell>
        <mxCell id="YDgJeZkZUilkzCZ2CpeF-23" value="" style="endArrow=classic;html=1;rounded=1;" edge="1" parent="1" source="YDgJeZkZUilkzCZ2CpeF-2">
          <mxGeometry width="50" height="50" relative="1" as="geometry">
            <mxPoint x="650" y="245" as="sourcePoint" />
            <mxPoint x="680" y="195" as="targetPoint" />
          </mxGeometry>
        </mxCell>
        <mxCell id="YDgJeZkZUilkzCZ2CpeF-30" value="" style="endArrow=classic;html=1;rounded=0;" edge="1" parent="1">
          <mxGeometry relative="1" as="geometry">
            <mxPoint x="670" y="216" as="sourcePoint" />
            <mxPoint x="630" y="216" as="targetPoint" />
          </mxGeometry>
        </mxCell>
        <mxCell id="YDgJeZkZUilkzCZ2CpeF-31" value="" style="shape=message;html=1;outlineConnect=0;" vertex="1" parent="YDgJeZkZUilkzCZ2CpeF-30">
          <mxGeometry width="20" height="14" relative="1" as="geometry">
            <mxPoint x="-10" y="-7" as="offset" />
          </mxGeometry>
        </mxCell>
        <mxCell id="YDgJeZkZUilkzCZ2CpeF-37" value="" style="endArrow=classic;html=1;rounded=0;" edge="1" parent="1">
          <mxGeometry relative="1" as="geometry">
            <mxPoint x="575" y="218" as="sourcePoint" />
            <mxPoint x="530" y="218" as="targetPoint" />
          </mxGeometry>
        </mxCell>
        <mxCell id="YDgJeZkZUilkzCZ2CpeF-38" value="" style="shape=message;html=1;outlineConnect=0;" vertex="1" parent="YDgJeZkZUilkzCZ2CpeF-37">
          <mxGeometry width="20" height="14" relative="1" as="geometry">
            <mxPoint x="-10" y="-7" as="offset" />
          </mxGeometry>
        </mxCell>
        <mxCell id="YDgJeZkZUilkzCZ2CpeF-39" value="" style="endArrow=classic;html=1;rounded=0;" edge="1" parent="1">
          <mxGeometry relative="1" as="geometry">
            <mxPoint x="471" y="218" as="sourcePoint" />
            <mxPoint x="426" y="218" as="targetPoint" />
          </mxGeometry>
        </mxCell>
        <mxCell id="YDgJeZkZUilkzCZ2CpeF-40" value="" style="shape=message;html=1;outlineConnect=0;" vertex="1" parent="YDgJeZkZUilkzCZ2CpeF-39">
          <mxGeometry width="20" height="14" relative="1" as="geometry">
            <mxPoint x="-10" y="-7" as="offset" />
          </mxGeometry>
        </mxCell>
        <mxCell id="YDgJeZkZUilkzCZ2CpeF-41" value="" style="endArrow=classic;html=1;rounded=0;entryX=1;entryY=0.75;entryDx=0;entryDy=0;" edge="1" parent="1" target="YDgJeZkZUilkzCZ2CpeF-6">
          <mxGeometry relative="1" as="geometry">
            <mxPoint x="366" y="219" as="sourcePoint" />
            <mxPoint x="321" y="219" as="targetPoint" />
          </mxGeometry>
        </mxCell>
        <mxCell id="YDgJeZkZUilkzCZ2CpeF-42" value="" style="shape=message;html=1;outlineConnect=0;" vertex="1" parent="YDgJeZkZUilkzCZ2CpeF-41">
          <mxGeometry width="20" height="14" relative="1" as="geometry">
            <mxPoint x="-10" y="-7" as="offset" />
          </mxGeometry>
        </mxCell>
        <mxCell id="YDgJeZkZUilkzCZ2CpeF-43" value="ModelAndView" style="text;html=1;strokeColor=none;fillColor=none;align=center;verticalAlign=middle;whiteSpace=wrap;rounded=0;" vertex="1" parent="1">
          <mxGeometry x="316" y="178" width="10" height="10" as="geometry" />
        </mxCell>
        <mxCell id="YDgJeZkZUilkzCZ2CpeF-49" value="" style="endArrow=classic;html=1;rounded=0;" edge="1" parent="1" source="YDgJeZkZUilkzCZ2CpeF-6">
          <mxGeometry width="50" height="50" relative="1" as="geometry">
            <mxPoint x="260" y="270" as="sourcePoint" />
            <mxPoint x="320" y="300" as="targetPoint" />
          </mxGeometry>
        </mxCell>
        <mxCell id="YDgJeZkZUilkzCZ2CpeF-50" value="prefix-viewname-sufix" style="text;html=1;strokeColor=none;fillColor=none;align=center;verticalAlign=middle;whiteSpace=wrap;rounded=0;" vertex="1" parent="1">
          <mxGeometry x="400" y="310" width="180" height="70" as="geometry" />
        </mxCell>
        <mxCell id="YDgJeZkZUilkzCZ2CpeF-51" value="" style="endArrow=classic;html=1;rounded=0;entryX=1;entryY=0.75;entryDx=0;entryDy=0;" edge="1" parent="1" source="YDgJeZkZUilkzCZ2CpeF-7" target="YDgJeZkZUilkzCZ2CpeF-6">
          <mxGeometry width="50" height="50" relative="1" as="geometry">
            <mxPoint x="374" y="269.28932188134524" as="sourcePoint" />
            <mxPoint x="374" y="219.28932188134524" as="targetPoint" />
          </mxGeometry>
        </mxCell>
        <mxCell id="YDgJeZkZUilkzCZ2CpeF-52" value="model" style="text;html=1;strokeColor=none;fillColor=none;align=center;verticalAlign=middle;whiteSpace=wrap;rounded=0;" vertex="1" parent="1">
          <mxGeometry x="140" y="235" width="60" height="30" as="geometry" />
        </mxCell>
        <mxCell id="YDgJeZkZUilkzCZ2CpeF-54" value="view" style="text;html=1;strokeColor=none;fillColor=none;align=center;verticalAlign=middle;whiteSpace=wrap;rounded=0;" vertex="1" parent="1">
          <mxGeometry x="330" y="250" width="60" height="30" as="geometry" />
        </mxCell>
        <mxCell id="YDgJeZkZUilkzCZ2CpeF-55" value="" style="endArrow=classic;html=1;rounded=0;exitX=0.25;exitY=0;exitDx=0;exitDy=0;" edge="1" parent="1" source="YDgJeZkZUilkzCZ2CpeF-5" target="YDgJeZkZUilkzCZ2CpeF-6">
          <mxGeometry width="50" height="50" relative="1" as="geometry">
            <mxPoint x="190" y="310" as="sourcePoint" />
            <mxPoint x="240" y="260" as="targetPoint" />
          </mxGeometry>
        </mxCell>
        <mxCell id="YDgJeZkZUilkzCZ2CpeF-56" value="" style="endArrow=classic;html=1;rounded=0;entryX=0.5;entryY=0;entryDx=0;entryDy=0;" edge="1" parent="1" source="YDgJeZkZUilkzCZ2CpeF-6" target="YDgJeZkZUilkzCZ2CpeF-5">
          <mxGeometry width="50" height="50" relative="1" as="geometry">
            <mxPoint x="240" y="270" as="sourcePoint" />
            <mxPoint x="290" y="220" as="targetPoint" />
          </mxGeometry>
        </mxCell>
        <mxCell id="YDgJeZkZUilkzCZ2CpeF-59" value="" style="endArrow=classic;html=1;rounded=0;" edge="1" parent="1">
          <mxGeometry width="50" height="50" relative="1" as="geometry">
            <mxPoint x="200" y="220" as="sourcePoint" />
            <mxPoint x="20" y="220" as="targetPoint" />
          </mxGeometry>
        </mxCell>
        <mxCell id="YDgJeZkZUilkzCZ2CpeF-61" value="" style="endArrow=classic;html=1;rounded=0;exitX=0;exitY=0.5;exitDx=0;exitDy=0;startArrow=none;" edge="1" parent="1" source="YDgJeZkZUilkzCZ2CpeF-63">
          <mxGeometry width="50" height="50" relative="1" as="geometry">
            <mxPoint x="110" y="177.5" as="sourcePoint" />
            <mxPoint x="210" y="180" as="targetPoint" />
          </mxGeometry>
        </mxCell>
        <mxCell id="YDgJeZkZUilkzCZ2CpeF-62" value="url (ip,port),Method,parameter)" style="text;html=1;strokeColor=none;fillColor=none;align=center;verticalAlign=middle;whiteSpace=wrap;rounded=0;" vertex="1" parent="1">
          <mxGeometry x="10" y="120" width="190" height="30" as="geometry" />
        </mxCell>
        <mxCell id="YDgJeZkZUilkzCZ2CpeF-63" value="Request" style="ellipse;whiteSpace=wrap;html=1;aspect=fixed;" vertex="1" parent="1">
          <mxGeometry x="29" y="154" width="51" height="51" as="geometry" />
        </mxCell>
        <mxCell id="YDgJeZkZUilkzCZ2CpeF-65" value="" style="endArrow=none;html=1;rounded=0;entryX=0;entryY=0.25;entryDx=0;entryDy=0;exitX=1;exitY=0.25;exitDx=0;exitDy=0;" edge="1" parent="1" target="YDgJeZkZUilkzCZ2CpeF-64">
          <mxGeometry width="50" height="50" relative="1" as="geometry">
            <mxPoint x="110" y="177.5" as="sourcePoint" />
            <mxPoint x="200" y="175" as="targetPoint" />
          </mxGeometry>
        </mxCell>
        <mxCell id="YDgJeZkZUilkzCZ2CpeF-64" value="Reponse" style="ellipse;whiteSpace=wrap;html=1;aspect=fixed;" vertex="1" parent="1">
          <mxGeometry x="80" y="155" width="50" height="50" as="geometry" />
        </mxCell>
        <mxCell id="YDgJeZkZUilkzCZ2CpeF-67" value="Forwarding Redirect" style="text;html=1;strokeColor=none;fillColor=none;align=center;verticalAlign=middle;whiteSpace=wrap;rounded=0;" vertex="1" parent="1">
          <mxGeometry y="10" width="146" height="40" as="geometry" />
        </mxCell>
        <mxCell id="YDgJeZkZUilkzCZ2CpeF-71" value="" style="endArrow=classic;html=1;rounded=0;exitX=0;exitY=0.675;exitDx=0;exitDy=0;exitPerimeter=0;" edge="1" parent="1" source="YDgJeZkZUilkzCZ2CpeF-6">
          <mxGeometry relative="1" as="geometry">
            <mxPoint x="260" y="340" as="sourcePoint" />
            <mxPoint x="10" y="210" as="targetPoint" />
            <Array as="points">
              <mxPoint x="200" y="210" />
            </Array>
          </mxGeometry>
        </mxCell>
        <mxCell id="YDgJeZkZUilkzCZ2CpeF-72" value="rediret" style="edgeLabel;resizable=0;html=1;align=center;verticalAlign=middle;" connectable="0" vertex="1" parent="YDgJeZkZUilkzCZ2CpeF-71">
          <mxGeometry relative="1" as="geometry" />
        </mxCell>
        <mxCell id="YDgJeZkZUilkzCZ2CpeF-74" value="Product" style="text;html=1;strokeColor=none;fillColor=none;align=center;verticalAlign=middle;whiteSpace=wrap;rounded=0;" vertex="1" parent="1">
          <mxGeometry x="40" y="380" width="60" height="30" as="geometry" />
        </mxCell>
        <mxCell id="YDgJeZkZUilkzCZ2CpeF-75" value="ProductDAO" style="swimlane;fontStyle=1;align=center;verticalAlign=top;childLayout=stackLayout;horizontal=1;startSize=26;horizontalStack=0;resizeParent=1;resizeParentMax=0;resizeLast=0;collapsible=1;marginBottom=0;" vertex="1" parent="1">
          <mxGeometry x="690" y="440" width="330" height="140" as="geometry" />
        </mxCell>
        <mxCell id="YDgJeZkZUilkzCZ2CpeF-76" value="+ sql Seession: SqlSession&#xa;- NAMESPACE :String" style="text;strokeColor=none;fillColor=none;align=left;verticalAlign=top;spacingLeft=4;spacingRight=4;overflow=hidden;rotatable=0;points=[[0,0.5],[1,0.5]];portConstraint=eastwest;" vertex="1" parent="YDgJeZkZUilkzCZ2CpeF-75">
          <mxGeometry y="26" width="330" height="44" as="geometry" />
        </mxCell>
        <mxCell id="YDgJeZkZUilkzCZ2CpeF-77" value="" style="line;strokeWidth=1;fillColor=none;align=left;verticalAlign=middle;spacingTop=-1;spacingLeft=3;spacingRight=3;rotatable=0;labelPosition=right;points=[];portConstraint=eastwest;strokeColor=inherit;" vertex="1" parent="YDgJeZkZUilkzCZ2CpeF-75">
          <mxGeometry y="70" width="330" height="8" as="geometry" />
        </mxCell>
        <mxCell id="YDgJeZkZUilkzCZ2CpeF-78" value="+ getProductList: List&lt;ProductDTO&gt;&#xa;+ getProductDetail(ProductDTO) : ProductDTO&#xa;+ setProductAdd(ProductDTO,List&lt;ProductOptionDTO) :  int" style="text;strokeColor=none;fillColor=none;align=left;verticalAlign=top;spacingLeft=4;spacingRight=4;overflow=hidden;rotatable=0;points=[[0,0.5],[1,0.5]];portConstraint=eastwest;" vertex="1" parent="YDgJeZkZUilkzCZ2CpeF-75">
          <mxGeometry y="78" width="330" height="62" as="geometry" />
        </mxCell>
        <mxCell id="YDgJeZkZUilkzCZ2CpeF-79" value="ProductService" style="swimlane;fontStyle=1;align=center;verticalAlign=top;childLayout=stackLayout;horizontal=1;startSize=26;horizontalStack=0;resizeParent=1;resizeParentMax=0;resizeLast=0;collapsible=1;marginBottom=0;" vertex="1" parent="1">
          <mxGeometry x="385" y="440" width="210" height="140" as="geometry" />
        </mxCell>
        <mxCell id="YDgJeZkZUilkzCZ2CpeF-80" value="productDAO : ProductDAO" style="text;strokeColor=none;fillColor=none;align=left;verticalAlign=top;spacingLeft=4;spacingRight=4;overflow=hidden;rotatable=0;points=[[0,0.5],[1,0.5]];portConstraint=eastwest;" vertex="1" parent="YDgJeZkZUilkzCZ2CpeF-79">
          <mxGeometry y="26" width="210" height="26" as="geometry" />
        </mxCell>
        <mxCell id="YDgJeZkZUilkzCZ2CpeF-81" value="" style="line;strokeWidth=1;fillColor=none;align=left;verticalAlign=middle;spacingTop=-1;spacingLeft=3;spacingRight=3;rotatable=0;labelPosition=right;points=[];portConstraint=eastwest;strokeColor=inherit;" vertex="1" parent="YDgJeZkZUilkzCZ2CpeF-79">
          <mxGeometry y="52" width="210" height="8" as="geometry" />
        </mxCell>
        <mxCell id="YDgJeZkZUilkzCZ2CpeF-82" value="+ getProductList: List&lt;ProductDTO&gt;&#xa;+ getProductDetail(ProductDTO) : ProductDTO&#xa;+ setProductAdd(ProductDTO) : int" style="text;strokeColor=none;fillColor=none;align=left;verticalAlign=top;spacingLeft=4;spacingRight=4;overflow=hidden;rotatable=0;points=[[0,0.5],[1,0.5]];portConstraint=eastwest;" vertex="1" parent="YDgJeZkZUilkzCZ2CpeF-79">
          <mxGeometry y="60" width="210" height="80" as="geometry" />
        </mxCell>
        <mxCell id="YDgJeZkZUilkzCZ2CpeF-89" value="ProductController" style="swimlane;fontStyle=1;align=center;verticalAlign=top;childLayout=stackLayout;horizontal=1;startSize=26;horizontalStack=0;resizeParent=1;resizeParentMax=0;resizeLast=0;collapsible=1;marginBottom=0;" vertex="1" parent="1">
          <mxGeometry x="40" y="420" width="260" height="180" as="geometry" />
        </mxCell>
        <mxCell id="YDgJeZkZUilkzCZ2CpeF-90" value="-productService : ProductService" style="text;strokeColor=none;fillColor=none;align=left;verticalAlign=top;spacingLeft=4;spacingRight=4;overflow=hidden;rotatable=0;points=[[0,0.5],[1,0.5]];portConstraint=eastwest;" vertex="1" parent="YDgJeZkZUilkzCZ2CpeF-89">
          <mxGeometry y="26" width="260" height="34" as="geometry" />
        </mxCell>
        <mxCell id="YDgJeZkZUilkzCZ2CpeF-91" value="" style="line;strokeWidth=1;fillColor=none;align=left;verticalAlign=middle;spacingTop=-1;spacingLeft=3;spacingRight=3;rotatable=0;labelPosition=right;points=[];portConstraint=eastwest;strokeColor=inherit;" vertex="1" parent="YDgJeZkZUilkzCZ2CpeF-89">
          <mxGeometry y="60" width="260" height="8" as="geometry" />
        </mxCell>
        <mxCell id="YDgJeZkZUilkzCZ2CpeF-92" value="+ getProductList: ModelAndView&#xa;+ getProductDetail(ProductDTO) : String&#xa;+ setProductAdd() void&#xa;+ setProductAdd(ProductDTO)String" style="text;strokeColor=none;fillColor=none;align=left;verticalAlign=top;spacingLeft=4;spacingRight=4;overflow=hidden;rotatable=0;points=[[0,0.5],[1,0.5]];portConstraint=eastwest;" vertex="1" parent="YDgJeZkZUilkzCZ2CpeF-89">
          <mxGeometry y="68" width="260" height="112" as="geometry" />
        </mxCell>
        <mxCell id="YDgJeZkZUilkzCZ2CpeF-93" value="" style="endArrow=classic;html=1;rounded=0;entryX=0;entryY=0.5;entryDx=0;entryDy=0;" edge="1" parent="1" source="YDgJeZkZUilkzCZ2CpeF-92" target="YDgJeZkZUilkzCZ2CpeF-82">
          <mxGeometry width="50" height="50" relative="1" as="geometry">
            <mxPoint x="390" y="560" as="sourcePoint" />
            <mxPoint x="440" y="510" as="targetPoint" />
          </mxGeometry>
        </mxCell>
        <mxCell id="YDgJeZkZUilkzCZ2CpeF-94" value="" style="endArrow=classic;html=1;rounded=0;exitX=0.995;exitY=0.388;exitDx=0;exitDy=0;exitPerimeter=0;entryX=0.006;entryY=0.21;entryDx=0;entryDy=0;entryPerimeter=0;" edge="1" parent="1" source="YDgJeZkZUilkzCZ2CpeF-82" target="YDgJeZkZUilkzCZ2CpeF-78">
          <mxGeometry width="50" height="50" relative="1" as="geometry">
            <mxPoint x="390" y="560" as="sourcePoint" />
            <mxPoint x="440" y="510" as="targetPoint" />
          </mxGeometry>
        </mxCell>
        <mxCell id="YDgJeZkZUilkzCZ2CpeF-96" value="Member" style="text;html=1;strokeColor=none;fillColor=none;align=center;verticalAlign=middle;whiteSpace=wrap;rounded=0;" vertex="1" parent="1">
          <mxGeometry x="50" y="900" width="60" height="30" as="geometry" />
        </mxCell>
        <mxCell id="YDgJeZkZUilkzCZ2CpeF-102" value="MemberController" style="swimlane;fontStyle=1;align=center;verticalAlign=top;childLayout=stackLayout;horizontal=1;startSize=26;horizontalStack=0;resizeParent=1;resizeParentMax=0;resizeLast=0;collapsible=1;marginBottom=0;" vertex="1" parent="1">
          <mxGeometry x="50" y="950" width="267" height="150" as="geometry" />
        </mxCell>
        <mxCell id="YDgJeZkZUilkzCZ2CpeF-103" value="+ memberservice : MemberService" style="text;strokeColor=none;fillColor=none;align=left;verticalAlign=top;spacingLeft=4;spacingRight=4;overflow=hidden;rotatable=0;points=[[0,0.5],[1,0.5]];portConstraint=eastwest;" vertex="1" parent="YDgJeZkZUilkzCZ2CpeF-102">
          <mxGeometry y="26" width="267" height="26" as="geometry" />
        </mxCell>
        <mxCell id="YDgJeZkZUilkzCZ2CpeF-104" value="" style="line;strokeWidth=1;fillColor=none;align=left;verticalAlign=middle;spacingTop=-1;spacingLeft=3;spacingRight=3;rotatable=0;labelPosition=right;points=[];portConstraint=eastwest;strokeColor=inherit;" vertex="1" parent="YDgJeZkZUilkzCZ2CpeF-102">
          <mxGeometry y="52" width="267" height="8" as="geometry" />
        </mxCell>
        <mxCell id="YDgJeZkZUilkzCZ2CpeF-105" value="+ getMemberjoin&#xa;+ memberLogin&#xa;+  getMemberjoin(memberDTO) : String" style="text;strokeColor=none;fillColor=none;align=left;verticalAlign=top;spacingLeft=4;spacingRight=4;overflow=hidden;rotatable=0;points=[[0,0.5],[1,0.5]];portConstraint=eastwest;" vertex="1" parent="YDgJeZkZUilkzCZ2CpeF-102">
          <mxGeometry y="60" width="267" height="90" as="geometry" />
        </mxCell>
        <mxCell id="YDgJeZkZUilkzCZ2CpeF-106" value="MemberService" style="swimlane;fontStyle=1;align=center;verticalAlign=top;childLayout=stackLayout;horizontal=1;startSize=26;horizontalStack=0;resizeParent=1;resizeParentMax=0;resizeLast=0;collapsible=1;marginBottom=0;" vertex="1" parent="1">
          <mxGeometry x="387" y="950" width="267" height="86" as="geometry" />
        </mxCell>
        <mxCell id="YDgJeZkZUilkzCZ2CpeF-107" value="+ memberDAO MemberDAO" style="text;strokeColor=none;fillColor=none;align=left;verticalAlign=top;spacingLeft=4;spacingRight=4;overflow=hidden;rotatable=0;points=[[0,0.5],[1,0.5]];portConstraint=eastwest;" vertex="1" parent="YDgJeZkZUilkzCZ2CpeF-106">
          <mxGeometry y="26" width="267" height="26" as="geometry" />
        </mxCell>
        <mxCell id="YDgJeZkZUilkzCZ2CpeF-108" value="" style="line;strokeWidth=1;fillColor=none;align=left;verticalAlign=middle;spacingTop=-1;spacingLeft=3;spacingRight=3;rotatable=0;labelPosition=right;points=[];portConstraint=eastwest;strokeColor=inherit;" vertex="1" parent="YDgJeZkZUilkzCZ2CpeF-106">
          <mxGeometry y="52" width="267" height="8" as="geometry" />
        </mxCell>
        <mxCell id="YDgJeZkZUilkzCZ2CpeF-109" value="+ setMemberAdd(MemberDTO) int" style="text;strokeColor=none;fillColor=none;align=left;verticalAlign=top;spacingLeft=4;spacingRight=4;overflow=hidden;rotatable=0;points=[[0,0.5],[1,0.5]];portConstraint=eastwest;" vertex="1" parent="YDgJeZkZUilkzCZ2CpeF-106">
          <mxGeometry y="60" width="267" height="26" as="geometry" />
        </mxCell>
        <mxCell id="YDgJeZkZUilkzCZ2CpeF-110" value="MemberDAO" style="swimlane;fontStyle=1;align=center;verticalAlign=top;childLayout=stackLayout;horizontal=1;startSize=26;horizontalStack=0;resizeParent=1;resizeParentMax=0;resizeLast=0;collapsible=1;marginBottom=0;" vertex="1" parent="1">
          <mxGeometry x="728.5" y="950" width="267" height="124" as="geometry" />
        </mxCell>
        <mxCell id="YDgJeZkZUilkzCZ2CpeF-111" value="+ sql Session : SqlSession&#xa;- NAMESPACE : String" style="text;strokeColor=none;fillColor=none;align=left;verticalAlign=top;spacingLeft=4;spacingRight=4;overflow=hidden;rotatable=0;points=[[0,0.5],[1,0.5]];portConstraint=eastwest;" vertex="1" parent="YDgJeZkZUilkzCZ2CpeF-110">
          <mxGeometry y="26" width="267" height="64" as="geometry" />
        </mxCell>
        <mxCell id="YDgJeZkZUilkzCZ2CpeF-112" value="" style="line;strokeWidth=1;fillColor=none;align=left;verticalAlign=middle;spacingTop=-1;spacingLeft=3;spacingRight=3;rotatable=0;labelPosition=right;points=[];portConstraint=eastwest;strokeColor=inherit;" vertex="1" parent="YDgJeZkZUilkzCZ2CpeF-110">
          <mxGeometry y="90" width="267" height="8" as="geometry" />
        </mxCell>
        <mxCell id="YDgJeZkZUilkzCZ2CpeF-113" value="+  getMemberjoin(memberDTO) : String" style="text;strokeColor=none;fillColor=none;align=left;verticalAlign=top;spacingLeft=4;spacingRight=4;overflow=hidden;rotatable=0;points=[[0,0.5],[1,0.5]];portConstraint=eastwest;" vertex="1" parent="YDgJeZkZUilkzCZ2CpeF-110">
          <mxGeometry y="98" width="267" height="26" as="geometry" />
        </mxCell>
        <mxCell id="YDgJeZkZUilkzCZ2CpeF-114" value="MemberDTO" style="swimlane;fontStyle=1;align=center;verticalAlign=top;childLayout=stackLayout;horizontal=1;startSize=26;horizontalStack=0;resizeParent=1;resizeParentMax=0;resizeLast=0;collapsible=1;marginBottom=0;" vertex="1" parent="1">
          <mxGeometry x="721.5" y="827" width="267" height="86" as="geometry" />
        </mxCell>
        <mxCell id="YDgJeZkZUilkzCZ2CpeF-115" value="+ field: type" style="text;strokeColor=none;fillColor=none;align=left;verticalAlign=top;spacingLeft=4;spacingRight=4;overflow=hidden;rotatable=0;points=[[0,0.5],[1,0.5]];portConstraint=eastwest;" vertex="1" parent="YDgJeZkZUilkzCZ2CpeF-114">
          <mxGeometry y="26" width="267" height="26" as="geometry" />
        </mxCell>
        <mxCell id="YDgJeZkZUilkzCZ2CpeF-116" value="" style="line;strokeWidth=1;fillColor=none;align=left;verticalAlign=middle;spacingTop=-1;spacingLeft=3;spacingRight=3;rotatable=0;labelPosition=right;points=[];portConstraint=eastwest;strokeColor=inherit;" vertex="1" parent="YDgJeZkZUilkzCZ2CpeF-114">
          <mxGeometry y="52" width="267" height="8" as="geometry" />
        </mxCell>
        <mxCell id="YDgJeZkZUilkzCZ2CpeF-117" value="+ method(type): type" style="text;strokeColor=none;fillColor=none;align=left;verticalAlign=top;spacingLeft=4;spacingRight=4;overflow=hidden;rotatable=0;points=[[0,0.5],[1,0.5]];portConstraint=eastwest;" vertex="1" parent="YDgJeZkZUilkzCZ2CpeF-114">
          <mxGeometry y="60" width="267" height="26" as="geometry" />
        </mxCell>
        <mxCell id="YDgJeZkZUilkzCZ2CpeF-118" value="" style="endArrow=classic;html=1;rounded=0;entryX=0;entryY=0.5;entryDx=0;entryDy=0;" edge="1" parent="1" source="YDgJeZkZUilkzCZ2CpeF-105" target="YDgJeZkZUilkzCZ2CpeF-109">
          <mxGeometry width="50" height="50" relative="1" as="geometry">
            <mxPoint x="370" y="880" as="sourcePoint" />
            <mxPoint x="420" y="830" as="targetPoint" />
          </mxGeometry>
        </mxCell>
        <mxCell id="YDgJeZkZUilkzCZ2CpeF-120" value="" style="endArrow=classic;html=1;rounded=0;exitX=0.951;exitY=-0.154;exitDx=0;exitDy=0;exitPerimeter=0;entryX=0.017;entryY=0.125;entryDx=0;entryDy=0;entryPerimeter=0;" edge="1" parent="1" source="YDgJeZkZUilkzCZ2CpeF-109" target="YDgJeZkZUilkzCZ2CpeF-112">
          <mxGeometry width="50" height="50" relative="1" as="geometry">
            <mxPoint x="640" y="1030" as="sourcePoint" />
            <mxPoint x="690" y="980" as="targetPoint" />
          </mxGeometry>
        </mxCell>
      </root>
    </mxGraphModel>
  </diagram>
</mxfile>
